<svg width="72" height="84" viewBox="0 0 72 84" fill="none" xmlns="http://www.w3.org/2000/svg">
<path d="M38.8189 0C39.1336 0.0519119 39.4484 0.100579 39.7599 0.152491C41.1904 0.386095 42.6273 0.590498 44.0483 0.869525C44.8271 1.02202 45.5933 1.2686 46.3467 1.5314C47.6024 1.96616 48.874 2.37822 50.082 2.92978C51.4775 3.56895 52.8349 4.3022 54.1574 5.08088C55.216 5.70707 56.2332 6.41437 57.2028 7.17683C58.2391 7.99119 59.2214 8.88667 60.1815 9.79838C61.0684 10.6387 61.9267 11.5147 62.7374 12.4264C63.3414 13.1045 63.8595 13.8605 64.3999 14.5937C64.8545 15.2102 65.2964 15.8396 65.7256 16.4756C65.9926 16.8714 66.2374 17.2867 66.4726 17.7085C66.9272 18.5228 67.3913 19.3372 67.811 20.171C68.1161 20.781 68.3673 21.4234 68.6216 22.0593C69.038 23.1041 69.4894 24.139 69.8232 25.213C70.1729 26.3421 70.4209 27.5036 70.6752 28.6619C70.8787 29.5833 71.0662 30.5145 71.1997 31.4489C71.3237 32.3184 71.3905 33.1944 71.4381 34.0737C71.489 34.9757 71.5431 35.8841 71.4985 36.7861C71.4191 38.3597 71.2792 39.9268 71.1361 41.4971C71.0662 42.2433 70.9804 42.9961 70.8151 43.7261C70.529 44.972 70.2206 46.2146 69.836 47.4313C69.3337 49.0276 68.771 50.6076 68.0049 52.1001C67.42 53.2357 66.8509 54.3875 66.1897 55.4744C65.5285 56.5613 64.7846 57.5995 64.0344 58.6248C63.5289 59.3159 62.9599 59.9583 62.4036 60.6104C61.9299 61.1652 61.4658 61.7395 60.9381 62.2424C60.0066 63.1282 59.0402 63.9782 58.0643 64.8185C57.3999 65.3896 56.6974 65.9152 56.0202 66.4603C56.7864 67.8489 57.5525 69.2603 58.3377 70.6554C59.0498 71.9207 59.7905 73.1666 60.5026 74.4287C60.563 74.5358 60.5566 74.7889 60.4835 74.8473C59.5616 75.5805 58.646 76.3268 57.6796 76.9919C56.4875 77.8127 55.27 78.5979 54.0239 79.3279C53.1306 79.8503 52.1832 80.2786 51.2391 80.7068C50.3585 81.1027 49.4684 81.4823 48.5592 81.797C47.3544 82.2123 46.1273 82.5627 44.9066 82.9358C43.2949 83.429 41.6387 83.6691 39.9697 83.7859C38.1927 83.9124 36.4093 84.0292 34.6291 83.9935C33.0746 83.9643 31.5201 83.7404 29.9687 83.5588C29.0532 83.4517 28.1377 83.2927 27.238 83.085C26.2939 82.8644 25.3561 82.5919 24.4374 82.2804C23.3215 81.9041 22.2153 81.4952 21.1249 81.0508C20.327 80.7263 19.5545 80.3402 18.7852 79.9509C18.1399 79.6232 17.5009 79.2793 16.8905 78.8932C15.8097 78.2053 14.732 77.5045 13.6861 76.7648C12.8819 76.1937 12.1285 75.5513 11.3464 74.9446C11.143 74.7856 11.1017 74.6591 11.2479 74.406C11.836 73.3905 12.386 72.3523 12.9645 71.3302C13.4986 70.3829 14.0549 69.4452 14.5921 68.501C14.9514 67.8716 15.3042 67.2357 15.673 66.5771C15.2375 66.2461 14.802 65.9346 14.3919 65.5972C13.5463 64.9029 12.6911 64.2151 11.8773 63.4818C11.2034 62.8718 10.5644 62.2197 9.94452 61.5481C9.14978 60.6883 8.35187 59.822 7.62707 58.9006C6.9881 58.0862 6.41906 57.2102 5.86911 56.3309C5.26193 55.3543 4.677 54.3583 4.14294 53.3363C3.60251 52.3045 3.11614 51.2436 2.65201 50.1761C2.3659 49.5143 2.18152 48.8037 1.92085 48.1289C1.41858 46.8116 1.10386 45.4424 0.852722 44.057C0.668343 43.0415 0.477606 42.026 0.325016 41.0039C0.0357315 39.0637 -0.0628158 37.1073 0.0389106 35.1541C0.118384 33.6227 0.242363 32.0848 0.490322 30.5729C0.763711 28.889 1.15472 27.2213 1.58388 25.5699C1.85409 24.5316 2.22285 23.5064 2.65201 22.5233C3.2719 21.1054 3.94266 19.7038 4.67382 18.3411C5.25875 17.251 5.93269 16.203 6.63523 15.1842C7.30917 14.2044 8.04987 13.27 8.80646 12.355C9.30555 11.7516 9.86823 11.2 10.4341 10.6647C11.4895 9.66211 12.5258 8.62711 13.6544 7.71217C14.7161 6.85238 15.8828 6.12885 17.0081 5.35017C18.2003 4.52607 19.4687 3.83824 20.7943 3.26721C21.6431 2.90382 22.4823 2.50151 23.3502 2.19328C24.5645 1.76501 25.8043 1.42109 27.0282 1.01553C28.3443 0.57752 29.7049 0.408806 31.0686 0.240093C31.6218 0.171958 32.1717 0.0876014 32.7249 0.00973349C34.7594 0.00973349 36.7908 0.00973349 38.8253 0.00973349L38.8189 0ZM35.8752 36.7374C28.837 49.1801 21.8433 61.5481 14.8528 73.9096C15.2248 74.2081 15.5522 74.5099 15.9178 74.7499C16.9668 75.4345 18.0159 76.1191 19.0935 76.7518C19.8756 77.2093 20.6957 77.6019 21.5127 77.9879C22.1708 78.2994 22.8383 78.5947 23.5282 78.8283C24.8951 79.289 26.2684 79.753 27.664 80.1163C28.7003 80.3856 29.7716 80.5122 30.8334 80.6809C31.7362 80.8236 32.6422 80.9988 33.5546 81.054C34.664 81.1221 35.7767 81.067 36.8893 81.0864C38.358 81.1124 39.8076 80.934 41.2413 80.6647C42.6051 80.4083 43.9625 80.1034 45.2976 79.7335C46.423 79.4188 47.5261 79.0165 48.6165 78.5849C49.78 78.1242 50.9371 77.6278 52.0561 77.0633C52.9271 76.622 53.7377 76.064 54.5611 75.5319C55.3431 75.0257 56.1061 74.4904 56.9262 73.9323C56.6497 73.5008 56.3699 73.1082 56.1347 72.6864C55.6705 71.8559 55.2477 70.9993 54.7773 70.1687C53.8903 68.5984 52.9748 67.0443 52.0815 65.4772C51.5983 64.6304 51.1501 63.7673 50.6669 62.9205C50.136 61.9893 49.5733 61.0776 49.0456 60.1465C48.5243 59.2283 48.0347 58.2906 47.5197 57.3692C47.0111 56.4575 46.4866 55.5523 45.9716 54.6438C45.4852 53.7873 45.0083 52.9275 44.522 52.0709C44.2041 51.5161 43.8671 50.971 43.5556 50.413C43.0565 49.5207 42.5828 48.6123 42.0837 47.72C41.6005 46.8635 41.0887 46.0232 40.6023 45.1666C40.0651 44.2192 39.5469 43.2621 39.0097 42.3147C38.5678 41.536 38.0941 40.7768 37.6554 39.9949C37.0641 38.9404 36.4951 37.873 35.872 36.7309L35.8752 36.7374ZM62.216 54.6957C62.7533 53.7937 63.2969 52.908 63.8087 52.0093C64.0789 51.5356 64.3173 51.0424 64.5398 50.546C64.9722 49.5759 65.4204 48.609 65.7923 47.6162C66.1484 46.6623 66.4631 45.6857 66.7047 44.6994C66.9685 43.6255 67.1466 42.5256 67.3246 41.4322C67.439 40.7282 67.4899 40.0144 67.563 39.3038C67.6425 38.5154 67.7824 37.727 67.7728 36.9418C67.7569 35.7673 67.6647 34.5896 67.5535 33.4183C67.4486 32.3022 67.3437 31.1796 67.118 30.083C66.8605 28.8176 66.4535 27.5879 66.1515 26.3291C66.0657 25.9722 65.9258 25.8976 65.5952 25.9008C59.2055 25.9105 52.8159 25.9073 46.4293 25.9073H46.0224C51.4267 35.5143 56.8086 45.0823 62.2192 54.6957H62.216ZM38.0274 3.82851C37.3979 3.79606 36.8162 3.7409 36.2376 3.7409C35.3888 3.7409 34.5401 3.74739 33.6945 3.81877C32.5723 3.91286 31.4438 4.00371 30.3407 4.22109C28.8656 4.50985 27.3715 4.73696 25.9633 5.33071C24.6726 5.87578 23.3279 6.29432 22.0627 6.89455C20.5082 7.63105 19.0045 8.47787 17.6439 9.56153C16.4804 10.4895 15.2883 11.3882 14.1598 12.3615C13.47 12.9553 12.8692 13.6593 12.2334 14.318C11.7692 14.7981 11.7756 14.8046 12.0871 15.3562C12.6276 16.3133 13.168 17.2737 13.7084 18.2341C13.8451 18.4774 13.9691 18.7305 14.1089 18.9738C14.8719 20.2716 15.6444 21.5629 16.3978 22.8672C16.7093 23.4026 16.9764 23.9671 17.2784 24.5089C17.8696 25.5731 18.4673 26.6373 19.0681 27.695C19.5799 28.6002 20.1044 29.4957 20.6163 30.4009C21.0009 31.079 21.3792 31.7636 21.802 32.5131C27.2285 22.9224 32.6232 13.3868 38.0306 3.82851H38.0274ZM9.30237 18.1173C9.12435 18.3509 8.95269 18.5391 8.81917 18.7564C8.50128 19.2691 8.15795 19.7752 7.90046 20.3203C7.15976 21.8874 6.41271 23.4545 5.74831 25.054C5.36047 25.9917 5.07437 26.9812 4.82959 27.9676C4.56892 29.0155 4.38772 30.0862 4.21287 31.1569C4.09525 31.8739 4.05075 32.6007 3.97445 33.3242C3.89816 34.0607 3.76782 34.7972 3.76146 35.5337C3.7551 36.4714 3.8314 37.409 3.90451 38.3435C3.98399 39.3849 4.10161 40.4232 4.20334 41.4614C4.375 43.181 4.88363 44.8162 5.37637 46.4579C5.45266 46.7143 5.57664 46.7629 5.80871 46.7629C12.262 46.7564 18.7121 46.7597 25.1653 46.7564C25.2671 46.7564 25.3688 46.7402 25.4864 46.7305C25.0382 45.9583 24.609 45.2413 24.2021 44.5112C23.6013 43.4438 23.0227 42.3601 22.4219 41.2927C21.9419 40.4394 21.4396 39.6023 20.9564 38.7523C20.4128 37.7984 19.8883 36.8315 19.3447 35.8776C18.9346 35.1574 18.4927 34.4565 18.0858 33.733C17.787 33.2042 17.539 32.6494 17.2402 32.1205C16.8142 31.3645 16.3501 30.628 15.9241 29.8688C15.3742 28.889 14.856 27.8929 14.3029 26.9131C13.8483 26.1117 13.3524 25.3363 12.8946 24.5381C12.2334 23.3863 11.588 22.2248 10.9395 21.0665C10.3959 20.0964 9.86187 19.1231 9.30237 18.1108V18.1173ZM32.0414 22.0853H64.4254C64.365 21.9263 64.3205 21.7641 64.2442 21.6246C63.9803 21.1411 63.6847 20.6739 63.4399 20.1808C62.7914 18.8732 61.9522 17.6955 61.0843 16.5404C60.6647 15.9824 60.2355 15.4308 59.7873 14.8955C59.3327 14.3537 58.8654 13.8183 58.3695 13.3122C57.9403 12.8742 57.4698 12.4751 57.0089 12.0695C56.3222 11.466 55.661 10.8269 54.9299 10.2883C53.9189 9.54206 52.8858 8.81205 51.7986 8.18911C50.492 7.44287 49.1314 6.781 47.7645 6.15481C46.8267 5.72654 45.8476 5.38911 44.8653 5.07439C44.0451 4.81159 43.1963 4.64612 42.3571 4.44171C42.16 4.39305 42.0106 4.44172 41.893 4.65585C41.4447 5.4832 40.9647 6.29108 40.507 7.11518C40.0651 7.91008 39.6486 8.71796 39.2036 9.50637C38.7077 10.3824 38.1736 11.2389 37.6777 12.1182C37.1691 13.0202 36.6986 13.9448 36.1868 14.8468C35.6908 15.7196 35.1504 16.5696 34.6545 17.4424C34.1332 18.3574 33.6436 19.2885 33.135 20.21C33.0078 20.4436 32.8743 20.6739 32.7408 20.9043C32.5214 21.2806 32.2989 21.6538 32.0446 22.082L32.0414 22.0853ZM54.0906 63.0892C54.6628 62.622 55.2223 62.1743 55.7691 61.7168C56.3636 61.2204 56.9739 60.737 57.5366 60.2049C58.1883 59.5917 58.7796 58.9168 59.4281 58.3003C59.7332 58.0116 59.6347 57.7585 59.4726 57.486C59.0784 56.8241 58.6556 56.1752 58.2773 55.5036C57.6129 54.3226 56.9803 53.1254 56.3222 51.9411C55.6992 50.8185 55.0729 49.7024 54.4339 48.5896C53.9952 47.8239 53.5184 47.0809 53.0861 46.3087C52.5806 45.4132 52.1101 44.495 51.6174 43.593C51.3281 43.0642 51.0261 42.5451 50.7273 42.0195C50.3999 41.4419 50.0692 40.8612 49.7068 40.222C49.532 40.5886 49.4112 40.8969 49.2491 41.1759C48.8517 41.8637 48.4289 42.5353 48.0284 43.2199C47.5547 44.0343 47.0874 44.8519 46.6264 45.6728C46.2672 46.3119 45.9112 46.9511 45.5742 47.6C45.5202 47.7071 45.5202 47.8985 45.5742 48.0023C45.7904 48.4014 46.0574 48.7713 46.2799 49.1671C46.5851 49.7154 46.8521 50.2897 47.1573 50.838C47.7168 51.8503 48.2858 52.8561 48.8612 53.8586C49.3476 54.7022 49.8562 55.5295 50.3395 56.3731C51.0325 57.5833 51.7128 58.8032 52.393 60.0232C52.9557 61.029 53.5089 62.0413 54.0906 63.086V63.0892ZM24.6567 50.6693H7.06121C9.55033 55.7729 13.0535 59.9096 17.5963 63.1476C19.9391 59.0044 22.2884 54.8579 24.6599 50.6693H24.6567Z" fill="#004224"/>
<path d="M45.428 59.3839C42.6591 56.3276 39.887 53.2712 37.0355 50.1241C36.5905 52.5283 36.1581 54.8578 35.729 57.1841C35.6845 57.1841 35.6368 57.1874 35.5923 57.1906C34.9152 55.4061 34.2349 53.6184 33.5419 51.795C31.3198 54.3452 29.1231 56.8661 26.9296 59.3839C26.8883 59.3579 26.8502 59.3287 26.8088 59.3028C29.7335 53.5957 32.6613 47.8886 35.6241 42.1069C35.7957 42.3503 35.9547 42.5385 36.0755 42.7493C36.5205 43.5118 36.9624 44.2743 37.3947 45.0432C37.8652 45.877 38.3198 46.7206 38.7903 47.5544C39.4579 48.729 40.1255 49.9035 40.8089 51.0715C41.2603 51.8437 41.7435 52.5964 42.1918 53.3686C42.7481 54.3322 43.2853 55.3088 43.8289 56.2789C44.2009 56.9408 44.5696 57.6026 44.9479 58.2613C45.1101 58.5436 45.2881 58.8161 45.4502 59.0984C45.4915 59.1665 45.5042 59.2509 45.5297 59.3287C45.4947 59.3482 45.4629 59.3644 45.428 59.3839Z" fill="#004224"/>
<path d="M32.178 73.9225C32.4323 73.9517 32.6739 73.9809 32.9314 74.0101V77.6212C29.2406 77.4655 25.6675 76.703 22.1389 75.6583C22.1325 75.6226 22.123 75.5869 22.123 75.548C22.1039 74.9413 22.1039 74.951 22.7143 74.938C23.6075 74.9186 23.7283 75.1911 23.7252 73.8998C23.7156 70.97 23.7188 68.0402 23.7252 65.1072C23.7252 64.7957 23.6489 64.5394 23.4041 64.3675C22.9972 64.0852 22.5776 63.8289 22.1325 63.5401V62.875C22.6856 63.0405 23.2197 63.2222 23.7633 63.3584C24.6216 63.5726 25.4863 63.7672 26.3542 63.9489C27.3651 64.1631 28.376 64.3837 29.3964 64.5492C30.2007 64.6789 31.0177 64.7373 31.8315 64.799C32.0922 64.8185 32.1907 64.8963 32.1875 65.1656C32.178 66.0481 32.1875 66.9306 32.178 67.8099C32.178 67.9916 32.2924 68.2674 31.9714 68.2998C31.6662 68.329 31.396 68.2382 31.2784 67.9105C31.0972 67.4076 30.9096 66.9079 30.7602 66.3953C30.5663 65.7302 30.5981 65.8697 29.9114 65.7464C28.8401 65.555 27.7656 65.3992 26.6911 65.2273C26.583 65.211 26.4718 65.2013 26.3383 65.1851V69.5392C26.9105 69.643 27.5081 69.7566 28.1058 69.8604C28.3156 69.8961 28.5381 69.8799 28.7384 69.948C29.0594 70.0583 29.1644 69.8669 29.2629 69.63C29.4028 69.3056 29.5617 68.9909 29.6793 68.6567C29.7906 68.3322 30.0227 68.3679 30.2643 68.3971C30.5408 68.4296 30.4995 68.647 30.4995 68.8384C30.4995 70.2497 30.4995 71.6611 30.4995 73.0692C29.9241 73.2055 29.7715 73.1017 29.5236 72.4365C29.3996 72.1056 29.2915 71.7649 29.1485 71.4437C29.0944 71.3204 28.98 71.1582 28.8687 71.1355C28.0708 70.9798 27.2633 70.8532 26.4622 70.7202C26.4273 70.7137 26.3923 70.7299 26.3192 70.7429V72.8745C26.3192 73.6402 26.3446 74.4059 26.3097 75.1684C26.2906 75.5383 26.5067 75.6486 26.7515 75.6875C28.0136 75.8887 29.2788 76.0606 30.544 76.2456C30.5949 76.2521 30.6457 76.2585 30.6934 76.2715C31.2911 76.411 31.3197 76.3851 31.5168 75.8011C31.7266 75.1781 31.9555 74.5617 32.1812 73.9193L32.178 73.9225Z" fill="#004224"/>
<path d="M44.15 71.142C44.15 72.5533 44.1436 73.9387 44.1532 75.3241C44.1564 75.8205 44.239 75.8919 44.7286 75.9471C45.0783 75.986 45.4311 76.0119 45.8062 76.0476V76.8166C43.8798 77.0891 41.9502 77.3584 39.9919 77.6374C39.976 77.4525 39.9665 77.3519 39.9633 77.2546C39.9601 77.1508 39.9633 77.0502 39.9633 76.9496C40.348 76.7679 40.704 76.557 41.0855 76.4272C41.4288 76.3137 41.4892 76.0866 41.4892 75.7816C41.4892 74.1464 41.4892 72.5144 41.4892 70.8792C41.4892 69.3867 41.4892 67.8975 41.4892 66.405C41.4892 65.8989 41.4034 65.8113 40.917 65.7366C40.6087 65.6912 40.3067 65.6166 39.9824 65.5484V64.8476C40.5737 64.7827 41.1713 64.7341 41.7626 64.6497C42.9643 64.4778 44.1723 64.335 45.3612 64.0917C46.5946 63.8418 47.8058 63.4882 49.0233 63.1735C49.2014 63.1281 49.3635 63.0307 49.532 62.9561C49.8022 62.8393 49.9293 62.9172 49.9293 63.2189C49.9325 64.1274 49.923 65.0326 49.9357 65.941C49.9389 66.2428 49.8054 66.3661 49.5415 66.4407C49.2522 66.5218 49.1314 66.3304 49.0456 66.1325C48.8707 65.7269 48.7182 65.3084 48.5783 64.8866C48.4797 64.5881 48.3144 64.5005 48.0188 64.5751C47.3639 64.7406 46.7059 64.8833 46.051 65.0391C45.4375 65.1883 44.8239 65.344 44.1723 65.5063V69.9512C44.7063 69.8571 45.2308 69.7728 45.7522 69.6722C45.997 69.6268 46.2354 69.51 46.477 69.5002C46.9443 69.4873 47.0746 69.1531 47.205 68.7994C47.3067 68.5237 47.4275 68.2511 47.4847 67.9688C47.5737 67.5146 47.7708 67.1999 48.3017 67.1707V71.9725C47.7835 72.2321 47.7518 72.2256 47.5006 71.6773C47.3766 71.4113 47.2845 71.1355 47.17 70.8629C47.0715 70.6228 46.9507 70.5352 46.6455 70.6099C45.9334 70.7916 45.1991 70.8889 44.4743 71.0252C44.3662 71.0446 44.2644 71.0933 44.15 71.129V71.142Z" fill="#004224"/>
<path d="M33.491 65.6393V64.958H39.3085C39.4452 65.4933 39.407 65.5453 38.8698 65.7529C38.5423 65.8794 38.2181 66.0287 37.9288 66.2266C37.8144 66.3045 37.7571 66.5413 37.7571 66.7068C37.7476 69.8183 37.7476 72.9297 37.7508 76.0412C37.7508 76.4468 37.9574 76.6739 38.4215 76.7842C38.7235 76.8556 39.0255 76.9107 39.3339 76.9724V77.6051C37.382 77.8127 35.4429 77.936 33.4783 77.657V77.0438C33.8439 76.9562 34.1935 76.8718 34.5432 76.7842C34.8993 76.6933 35.0836 76.4922 35.0836 76.0866C35.0741 72.9492 35.0773 69.8118 35.0836 66.6743C35.0836 66.3012 34.9533 66.0644 34.5845 65.967C34.2221 65.873 33.8693 65.7497 33.491 65.6361V65.6393Z" fill="#004224"/>
</svg>
